<svg xmlns="http://www.w3.org/2000/svg" width="1427" height="625" fill="none"><g filter="url(#a)"><path stroke="#04FF61" stroke-linecap="round" stroke-width="34" d="M215 410c.398-2.618 6.786-8.055 8.787-10.06 11.17-11.189 24.266-20.323 37.501-29.791 23.171-16.576 46.98-32.864 71.708-47.847 30.676-18.589 62.056-34.436 97.205-46.88 38.921-13.781 78.125-17.476 120.271-17.476 35.404 0 63.65 10.171 93.831 24.375 14.994 7.057 30.264 14.664 43.935 23.344 17.117 10.867 34.503 23.028 54.29 30.565 32.079 12.219 70.418 25.149 105.757 28.438 33.385 3.106 67.701.158 100.265-6.384 17.467-3.51 34.944-10.73 51.309-16.766 20.791-7.668 44.851-14.574 61.821-27.406 22.66-17.134 42.45-36.286 67.63-51.136 26.79-15.804 50.81-39.241 82.69-47.976"/></g><g filter="url(#b)"><path stroke="#0049FF" stroke-linecap="round" stroke-width="38" d="M207 427c53.152-2.362 105.03-14.195 155.089-22.427 15.279-2.513 28.363-5.336 41.989-9.612 15.766-4.947 33.346-8.55 48.541-13.883 8.682-3.048 15.164-6.558 22.45-10.324 15.064-7.786 33.152-13.918 48.177-21.715 38.255-19.852 78.376-37.871 122.81-54.466 28.485-10.639 56.068-23.141 81.307-35.48 20.175-9.864 43.048-19.293 64.879-28.292l.166-.069c15.516-6.396 36.009-13.679 55.58-16.494 27.476-3.951 58.331-7.238 87.374-7.238 18.248 0 35.563 2.136 53.638 2.136"/></g><defs><filter id="a" width="1425.01" height="623.007" x=".998" y=".996" color-interpolation-filters="sRGB" filterUnits="userSpaceOnUse"><feFlood flood-opacity="0" result="BackgroundImageFix"/><feBlend in="SourceGraphic" in2="BackgroundImageFix" result="shape"/><feGaussianBlur result="effect1_foregroundBlur_1_3" stdDeviation="98.5"/></filter><filter id="b" width="1196" height="634" x="0" y="0" color-interpolation-filters="sRGB" filterUnits="userSpaceOnUse"><feFlood flood-opacity="0" result="BackgroundImageFix"/><feBlend in="SourceGraphic" in2="BackgroundImageFix" result="shape"/><feGaussianBlur result="effect1_foregroundBlur_2_9" stdDeviation="94"/></filter></defs></svg>